<svg width="37" height="8" viewBox="0 0 37 8" fill="none" xmlns="http://www.w3.org/2000/svg">
<path d="M36.8323 3.60833L33.2656 0.156772C33.1714 0.0656417 33.0772 0.0200766 32.9595 0.00868533C32.6417 -0.0482711 32.2886 0.179554 32.2886 0.555467V2.8679H1.1889C0.541478 2.85651 0 3.35772 0 3.98424C0 4.61076 0.506164 5.13476 1.16535 5.13476C1.16535 5.13476 1.1889 5.13476 1.20067 5.13476H12.2539C12.2539 5.13476 12.2774 5.13476 12.2892 5.13476H32.3003V7.44719C32.3003 7.93702 32.9124 8.18762 33.2656 7.83449L36.8323 4.38294C37.0559 4.1665 37.0559 3.82476 36.8323 3.60833Z" fill="white"/>
</svg>
