<?xml version="1.0" encoding="UTF-8"?>
<svg id="_레이어_1" data-name="레이어_1" xmlns="http://www.w3.org/2000/svg" version="1.1" viewBox="0 0 800 800">
  <!-- Generator: Adobe Illustrator 29.3.1, SVG Export Plug-In . SVG Version: 2.1.0 Build 151)  -->
  <defs>
    <style>
      .st0 {
        fill: #fff;
      }
    </style>
  </defs>
  <path class="st0" d="M666.7,458.3c0-13.8-11.2-25-25-25h-100c-13.8,0-25,11.2-25,25v225h-50V141.7c0-24.3,0-40-1.6-51.5-1.5-10.8-3.8-14.2-5.7-16.1s-5.3-4.3-16.1-5.7c-11.6-1.6-27.3-1.6-51.5-1.6s-40,0-51.5,1.6c-10.8,1.5-14.2,3.8-16.1,5.7-1.9,1.9-4.3,5.3-5.7,16.1-1.6,11.6-1.6,27.3-1.6,51.5v541.7h-50v-391.7c0-13.8-11.2-25-25-25h-100c-13.8,0-25,11.2-25,25v391.7h-58.3c-13.8,0-25,11.2-25,25s11.2,25,25,25h666.7c13.8,0,25-11.2,25-25s-11.2-25-25-25h-58.3v-225Z"/>
</svg>