<svg width="36" height="36" viewBox="0 0 36 36" fill="none" xmlns="http://www.w3.org/2000/svg">
<path d="M27.6001 3.59998C30.3001 3.59998 32.4001 5.69998 32.4001 8.39998V27.6C32.4001 30.3 30.3001 32.4 27.6001 32.4H8.4001C5.7001 32.4 3.6001 30.3 3.6001 27.6V8.39998C3.6001 5.69998 5.7001 3.59998 8.4001 3.59998H27.6001ZM25.2001 11.6L14.8001 22L10.8001 18C10.3001 17.5 9.6001 17.5 9.1001 18C8.6001 18.5 8.6001 19.2 9.1001 19.7L13.9001 24.5C14.4001 25 15.1001 25 15.6001 24.5L26.8001 13.3C27.3001 12.8 27.3001 12.1 26.8001 11.6C26.3001 11.1 25.6001 11.1 25.1001 11.6H25.2001Z" fill="white"/>
</svg>
