<svg width="36" height="36" viewBox="0 0 36 36" fill="none" xmlns="http://www.w3.org/2000/svg">
<path d="M18.0001 3.59998C10.0477 3.59998 3.6001 10.0476 3.6001 18C3.6001 25.9524 10.0477 32.4 18.0001 32.4C25.9525 32.4 32.4001 25.9524 32.4001 18C32.4001 10.0476 25.9525 3.59998 18.0001 3.59998ZM25.7077 14.2704L16.4017 23.5764C16.0993 23.8788 15.6997 24.0336 15.3001 24.0336C14.9005 24.0336 14.5009 23.8824 14.1985 23.5764L10.2925 19.6704C9.7633 19.1412 9.7633 18.288 10.2925 17.7588C10.8217 17.2296 11.6749 17.2296 12.2041 17.7588L15.3001 20.8548L23.7997 12.3552C24.3289 11.826 25.1821 11.826 25.7113 12.3552C26.2405 12.8844 26.2405 13.7376 25.7113 14.2668L25.7077 14.2704Z" fill="white"/>
</svg>
