<svg width="36" height="36" viewBox="0 0 36 36" fill="none" xmlns="http://www.w3.org/2000/svg">
<path d="M8.4001 3.59998H27.6001C30.3001 3.59998 32.4001 5.69998 32.4001 8.39998V27.6C32.4001 30.3 30.3001 32.4 27.6001 32.4H8.4001C5.7001 32.4 3.6001 30.3 3.6001 27.6V8.39998C3.6001 5.69998 5.7001 3.59998 8.4001 3.59998ZM8.4001 6.79998C7.5001 6.79998 6.8001 7.49998 6.8001 8.39998V27.6C6.8001 28.5 7.5001 29.2 8.4001 29.2H27.6001C28.5001 29.2 29.2001 28.5 29.2001 27.6V8.39998C29.2001 7.49998 28.5001 6.79998 27.6001 6.79998H8.4001Z" fill="white"/>
</svg>
