<svg width="36" height="36" viewBox="0 0 36 36" fill="none" xmlns="http://www.w3.org/2000/svg">
<path fill-rule="evenodd" clip-rule="evenodd" d="M17.4142 6.58579C18.1953 7.36683 18.1953 8.63317 17.4142 9.41421L8.82843 18L17.4142 26.5858C18.1953 27.3668 18.1953 28.6332 17.4142 29.4142C16.6332 30.1953 15.3668 30.1953 14.5858 29.4142L4.58579 19.4142C3.80474 18.6332 3.80474 17.3668 4.58579 16.5858L14.5858 6.58579C15.3668 5.80474 16.6332 5.80474 17.4142 6.58579ZM31.4142 6.58579C32.1953 7.36683 32.1953 8.63317 31.4142 9.41421L22.8284 18L31.4142 26.5858C32.1953 27.3668 32.1953 28.6332 31.4142 29.4142C30.6332 30.1953 29.3668 30.1953 28.5858 29.4142L18.5858 19.4142C17.8047 18.6332 17.8047 17.3668 18.5858 16.5858L28.5858 6.58579C29.3668 5.80474 30.6332 5.80474 31.4142 6.58579Z" fill="white"/>
</svg>
