<svg width="36" height="36" viewBox="0 0 36 36" fill="none" xmlns="http://www.w3.org/2000/svg">
<path fill-rule="evenodd" clip-rule="evenodd" d="M4.58579 6.58579C5.36683 5.80474 6.63317 5.80474 7.41421 6.58579L17.4142 16.5858C18.1953 17.3668 18.1953 18.6332 17.4142 19.4142L7.41421 29.4142C6.63317 30.1953 5.36683 30.1953 4.58579 29.4142C3.80474 28.6332 3.80474 27.3668 4.58579 26.5858L13.1716 18L4.58579 9.41421C3.80474 8.63317 3.80474 7.36683 4.58579 6.58579ZM18.5858 6.58579C19.3668 5.80474 20.6332 5.80474 21.4142 6.58579L31.4142 16.5858C32.1953 17.3668 32.1953 18.6332 31.4142 19.4142L21.4142 29.4142C20.6332 30.1953 19.3668 30.1953 18.5858 29.4142C17.8047 28.6332 17.8047 27.3668 18.5858 26.5858L27.1716 18L18.5858 9.41421C17.8047 8.63317 17.8047 7.36683 18.5858 6.58579Z" fill="white"/>
</svg>
