<svg width="36" height="36" viewBox="0 0 36 36" fill="none" xmlns="http://www.w3.org/2000/svg">
<path fill-rule="evenodd" clip-rule="evenodd" d="M18.0001 6.21816C11.4932 6.21816 6.21828 11.4931 6.21828 18C6.21828 24.5069 11.4932 29.7818 18.0001 29.7818C24.507 29.7818 29.7819 24.5069 29.7819 18C29.7819 11.4931 24.507 6.21816 18.0001 6.21816ZM3.6001 18C3.6001 10.0471 10.0472 3.59998 18.0001 3.59998C25.953 3.59998 32.4001 10.0471 32.4001 18C32.4001 25.9529 25.953 32.4 18.0001 32.4C10.0472 32.4 3.6001 25.9529 3.6001 18ZM18.0001 8.83634C18.7231 8.83634 19.3092 9.42244 19.3092 10.1454V17.1909L23.8219 19.4473C24.4686 19.7706 24.7307 20.5569 24.4073 21.2036C24.084 21.8503 23.2977 22.1124 22.651 21.789L17.4147 19.1709C16.9712 18.9491 16.691 18.4958 16.691 18V10.1454C16.691 9.42244 17.2771 8.83634 18.0001 8.83634Z" fill="white"/>
</svg>
