<svg width="36" height="36" viewBox="0 0 36 36" fill="none" xmlns="http://www.w3.org/2000/svg">
<path d="M30.843 27.657L21.186 18L30.843 8.34303C31.7205 7.46553 31.7205 6.03903 30.843 5.16153C29.9655 4.28403 28.539 4.28403 27.6615 5.16153L18.0045 14.8185L8.34304 5.15703C7.46554 4.27953 6.03904 4.27953 5.16154 5.15703C4.28404 6.03453 4.28404 7.46103 5.16154 8.33853L14.8185 17.9955L5.16154 27.6525C4.28404 28.53 4.28404 29.9565 5.16154 30.834C5.60254 31.275 6.17854 31.491 6.75454 31.491C7.33054 31.491 7.90654 31.2705 8.34754 30.834L18.0045 21.177L27.6615 30.834C28.1025 31.275 28.6785 31.491 29.2545 31.491C29.8305 31.491 30.4065 31.2705 30.8475 30.834C31.725 29.9565 31.725 28.53 30.8475 27.6525L30.843 27.657Z" fill="white"/>
</svg>
