<svg width="36" height="36" viewBox="0 0 36 36" fill="none" xmlns="http://www.w3.org/2000/svg">
<path d="M17.7051 32.9999H9.29505C7.44015 32.9999 6.4182 32.9999 5.45655 32.5098C4.60515 32.076 3.92475 31.3956 3.4905 30.5429C3 29.5803 3 28.5575 3 26.7003V18.3002C3 16.4426 3 15.4193 3.4905 14.4567C3.92475 13.6044 4.6047 12.9245 5.45655 12.4907C6.4191 12.0002 7.4424 12.0002 9.3 12.0002H11.9996V9.30061C11.9996 7.44301 11.9996 6.41971 12.4901 5.45716C12.9243 4.60486 13.6043 3.92491 14.4561 3.49111C15.4187 3.00061 16.442 3.00061 18.2996 3.00061H26.6997C28.5569 3.00061 29.5797 3.00061 30.5423 3.49111C31.395 3.92581 32.0754 4.60576 32.5092 5.45761C32.9997 6.42016 32.9997 7.44301 32.9997 9.30061V17.7008C32.9997 19.5579 32.9997 20.5812 32.5092 21.5438C32.075 22.3961 31.3946 23.0765 30.5418 23.5107C29.5797 24.0008 28.5582 24.0008 26.7042 24.0008H23.9997V26.7053C23.9997 28.5597 23.9997 29.5812 23.5097 30.5429C23.075 31.3956 22.395 32.076 21.5427 32.5103C20.5806 33.0003 19.5596 33.0003 17.7051 33.0003V32.9999ZM9.3 14.9999C7.99905 14.9999 7.1391 14.9999 6.81825 15.1632C6.5343 15.3081 6.30795 15.5345 6.16305 15.8184C5.9997 16.1393 5.9997 16.9988 5.9997 18.3002V26.7003C5.9997 28.0008 5.9997 28.8599 6.16305 29.1807C6.30795 29.4651 6.53475 29.6924 6.81825 29.8368C7.13865 30.0002 7.99635 30.0002 9.29505 30.0002H17.7051C19.0029 30.0002 19.8602 30.0002 20.1806 29.8368C20.4605 29.6942 20.6936 29.4611 20.8367 29.1803C21 28.8599 21 28.0026 21 26.7044V18.2952C21 16.9965 21 16.1388 20.8367 15.8184C20.6922 15.5349 20.4654 15.3081 20.1806 15.1632C19.8597 14.9999 19.0007 14.9999 17.7002 14.9999H9.3ZM23.9997 21.0002H26.7042C28.002 21.0002 28.8597 21.0002 29.1801 20.8368C29.4609 20.6937 29.694 20.4611 29.8367 20.1807C30 19.8599 30 19.0004 30 17.6999V9.29971C30 7.99876 30 7.13971 29.8367 6.81886C29.6922 6.53536 29.4654 6.30856 29.1806 6.16366C28.8597 6.00031 28.0007 6.00031 26.7002 6.00031H18.3C16.9986 6.00031 16.1391 6.00031 15.8183 6.16366C15.5343 6.30856 15.3075 6.53491 15.1631 6.81886C14.9997 7.13971 14.9997 7.99921 14.9997 9.30061V12.0002H17.7002C19.5573 12.0002 20.5802 12.0002 21.5427 12.4907C22.3955 12.9254 23.0759 13.6053 23.5097 14.4572C23.9997 15.4188 23.9997 16.4408 23.9997 18.2957V21.0002Z" fill="white"/>
</svg>
