<svg width="36" height="36" viewBox="0 0 36 36" fill="currentColor" xmlns="http://www.w3.org/2000/svg">
<path d="M16.56 18.54C17.28 19.26 18.54 19.26 19.26 18.54L30.42 9.00002L31.86 7.56002C31.14 7.20002 30.42 7.02002 29.7 7.02002H6.29998C5.39998 7.02002 4.67998 7.20002 4.13998 7.56002L5.57998 9.00002L16.56 18.54Z" fill="white"/>
<path d="M33.66 9.36002L32.22 10.8L21.06 20.34C20.16 21.06 19.08 21.42 18 21.42C16.92 21.42 15.84 21.06 14.94 20.34L3.95998 10.8L2.51998 9.36002C2.15998 10.08 1.97998 10.8 1.97998 11.52V24.66C1.97998 27.18 3.95998 29.16 6.47998 29.16H29.7C32.22 29.16 34.2 27.18 34.2 24.66V11.52C34.2 10.8 34.02 10.08 33.66 9.36002Z" fill="white"/>
</svg>
