<svg width="36" height="36" viewBox="0 0 36 36" fill="none" xmlns="http://www.w3.org/2000/svg">
<path d="M30.0238 28.3051H5.97584C5.02634 28.3051 4.25684 27.5356 4.25684 26.5861C4.25684 25.6366 5.02634 24.8671 5.97584 24.8671H30.0193C30.9688 24.8671 31.7383 25.6366 31.7383 26.5861C31.7383 27.5356 30.9688 28.3051 30.0193 28.3051H30.0238ZM30.0238 19.7191H5.97584C5.02634 19.7191 4.25684 18.9496 4.25684 18.0001C4.25684 17.0506 5.02634 16.2811 5.97584 16.2811H30.0193C30.9688 16.2811 31.7383 17.0506 31.7383 18.0001C31.7383 18.9496 30.9688 19.7191 30.0193 19.7191H30.0238ZM30.0238 11.1286H16.2853C15.3358 11.1286 14.5663 10.3591 14.5663 9.40955C14.5663 8.46005 15.3358 7.69055 16.2853 7.69055H30.0238C30.9733 7.69055 31.7428 8.46005 31.7428 9.40955C31.7428 10.3591 30.9733 11.1286 30.0238 11.1286Z" fill="white"/>
</svg>
