<svg width="36" height="36" viewBox="0 0 36 36" fill="none" xmlns="http://www.w3.org/2000/svg">
<path fill-rule="evenodd" clip-rule="evenodd" d="M4.35147 4.35147C4.8201 3.88284 5.5799 3.88284 6.04853 4.35147L12.1065 10.4095C12.1153 10.4179 12.1239 10.4266 12.1324 10.4353L16.6998 15.0028C16.7026 15.0055 16.7054 15.0083 16.7082 15.0111L21.7888 20.0917C21.7917 20.0946 21.7945 20.0974 21.7973 20.1003L26.3625 24.6655C26.3713 24.6739 26.3799 24.6826 26.3884 24.6913L32.4485 30.7515C32.9172 31.2201 32.9172 31.9799 32.4485 32.4485C31.9799 32.9172 31.2201 32.9172 30.7515 32.4485L25.3913 27.0884C23.3155 28.4243 20.9017 29.1593 18.4196 29.1998L18.4 29.2C13.7206 29.2 10.1254 26.5283 7.77455 24.0207C6.5882 22.7553 5.68248 21.4944 5.0732 20.551C4.76782 20.0782 4.53495 19.682 4.37677 19.4008C4.29763 19.2601 4.23705 19.148 4.1953 19.0691C4.17443 19.0296 4.15825 18.9985 4.14681 18.9762L4.13319 18.9496L4.12905 18.9414L4.12711 18.9375C4.12689 18.9371 4.12669 18.9367 5.2 18.4L4.12669 18.9367C3.95231 18.5879 3.95825 18.1762 4.14261 17.8326C5.50043 15.3022 7.31163 13.0476 9.48217 11.1792L4.35147 6.04853C3.88284 5.5799 3.88284 4.8201 4.35147 4.35147ZM11.1845 12.8816C9.34037 14.4416 7.77922 16.3098 6.57109 18.4038C6.70198 18.6299 6.87511 18.9173 7.0893 19.249C7.64252 20.1056 8.4618 21.2447 9.52544 22.3793C11.6727 24.6697 14.6741 26.7963 18.3902 26.8C20.2448 26.768 22.0524 26.2629 23.6457 25.3427L20.8597 22.5567C20.6692 22.6762 20.4701 22.7823 20.2638 22.8743C19.675 23.1366 19.0394 23.2777 18.3949 23.2891C17.7504 23.3004 17.1102 23.1819 16.5125 22.9405C15.9148 22.699 15.3719 22.3397 14.9161 21.8839C14.4603 21.4281 14.101 20.8852 13.8595 20.2875C13.6181 19.6898 13.4996 19.0496 13.5109 18.4051C13.5223 17.7606 13.6634 17.125 13.9257 16.5362C14.0177 16.3299 14.1238 16.1308 14.2432 15.9403L11.1845 12.8816ZM16.0335 17.7305C15.9565 17.9614 15.9149 18.2032 15.9106 18.4475C15.9049 18.7697 15.9642 19.0898 16.0849 19.3886C16.2056 19.6875 16.3852 19.959 16.6131 20.1869C16.841 20.4148 17.1125 20.5944 17.4114 20.7151C17.7102 20.8358 18.0303 20.8951 18.3525 20.8894C18.5968 20.8851 18.8386 20.8435 19.0695 20.7665L16.0335 17.7305ZM18.3972 10C17.6419 9.99822 16.8889 10.0843 16.1535 10.2564C15.5082 10.4075 14.8626 10.0068 14.7116 9.3615C14.5605 8.7162 14.9612 8.07063 15.6065 7.91958C16.5226 7.70514 17.4605 7.5979 18.4014 7.6C23.0801 7.60054 26.6749 10.272 29.0254 12.7793C30.2118 14.0447 31.1175 15.3056 31.7268 16.249C32.0322 16.7218 32.265 17.118 32.4232 17.3992C32.5024 17.5399 32.563 17.652 32.6047 17.7309C32.6256 17.7704 32.6417 17.8015 32.6532 17.8238L32.6668 17.8504L32.671 17.8586L32.6729 17.8625C32.6731 17.8629 32.6733 17.8633 31.6 18.4L32.6733 17.8633C32.8474 18.2115 32.8418 18.6224 32.6583 18.9657C31.8905 20.4021 30.9748 21.7544 29.9262 23.0006C29.4995 23.5077 28.7425 23.5729 28.2354 23.1462C27.7283 22.7195 27.6631 21.9625 28.0898 21.4554C28.8927 20.5012 29.6087 19.4778 30.2296 18.3973C30.0986 18.1711 29.9252 17.8832 29.7107 17.551C29.1575 16.6944 28.3382 15.5553 27.2746 14.4207C25.1254 12.1283 22.1206 10 18.4 10L18.3972 10Z" fill="white"/>
</svg>
