<svg width="36" height="36" viewBox="0 0 36 36" fill="none" xmlns="http://www.w3.org/2000/svg">
<path d="M19.4998 32.9998H9C6.5187 32.9998 4.5 30.9811 4.5 28.4998V7.50012C4.5 5.01882 6.5187 3.00012 9 3.00012H19.4998C21.9811 3.00012 23.9999 5.01882 23.9999 7.50012V12.0937C23.9999 12.9222 23.3284 13.5936 22.5 13.5936C21.6715 13.5936 21.0002 12.9222 21.0002 12.0937V7.50012C21.0002 6.67302 20.3274 6.00027 19.5003 6.00027H9.00045C8.17335 6.00027 7.5006 6.67302 7.5006 7.50012V28.5003C7.5006 29.3274 8.17335 30.0001 9.00045 30.0001H19.5003C20.3274 30.0001 21.0002 29.3274 21.0002 28.5003V24.7504C21.0002 23.922 21.6715 23.2506 22.5 23.2506C23.3284 23.2506 23.9999 23.922 23.9999 24.7504V28.5003C23.9999 30.9816 21.9811 32.9998 19.4998 32.9998ZM27.7502 23.2501C27.3663 23.2501 26.9824 23.1039 26.6895 22.8109C26.1036 22.225 26.1036 21.2755 26.6895 20.6896L27.8789 19.5003H16.5002C15.6717 19.5003 15.0003 18.8289 15.0003 18.0004C15.0003 17.172 15.6717 16.5006 16.5002 16.5006H27.8789L26.6895 15.3112C26.1036 14.7253 26.1036 13.7758 26.6895 13.1899C27.2754 12.604 28.2249 12.604 28.8108 13.1899L32.5607 16.9398C32.7168 17.0959 32.8311 17.2777 32.904 17.4712C32.954 17.6035 32.9854 17.7448 32.9963 17.892C32.9963 17.8924 32.9963 17.8929 32.9963 17.8933C32.9963 17.8938 32.9963 17.8947 32.9963 17.8951C32.9985 17.9302 32.9999 17.9653 32.9999 18.0004C32.9999 18.0355 32.9985 18.0706 32.9963 18.1057V18.1075C32.9963 18.1075 32.9963 18.1084 32.9963 18.1089C32.9859 18.256 32.954 18.3973 32.904 18.5296C32.8311 18.7236 32.7168 18.9054 32.5607 19.0611L28.8108 22.8109C28.5178 23.1039 28.134 23.2501 27.7502 23.2501Z" fill="white"/>
</svg>
