<svg width="54" height="32" viewBox="0 0 54 32" fill="none" xmlns="http://www.w3.org/2000/svg">
<g clip-path="url(#clip0_772_99)">
<path d="M53.4 14.7L39.2 0.6C38.4 -0.2 37.1 -0.2 36.3 0.6C35.5 1.4 35.5 2.6 36.3 3.4L47 14H36.4H11.4H2C0.9 13.9 0 14.8 0 15.9C0 17 0.9 17.9 2 17.9H11.4H34.8H47L36.1 28.5C35.3 29.3 35.3 30.5 36.1 31.3C36.9 32.1 38.2 32.1 39 31.3L53.4 17.4C54.2 16.6 54.2 15.4 53.4 14.6V14.7Z" fill="white"/>
</g>
<defs>
<clipPath id="clip0_772_99">
<rect width="54" height="32" fill="white"/>
</clipPath>
</defs>
</svg>
