<svg width="36" height="36" viewBox="0 0 36 36" fill="none" xmlns="http://www.w3.org/2000/svg">
<path d="M23.8572 25.1123H7.12217C4.58462 25.1123 2.52002 23.0477 2.52002 20.5101V10.4688C2.52002 7.9313 4.58462 5.8667 7.12217 5.8667H23.8572C26.3948 5.8667 28.4594 7.9313 28.4594 10.4688V20.5101C28.4594 23.0477 26.3948 25.1123 23.8572 25.1123ZM7.12217 8.37725C5.96882 8.37725 5.03012 9.3155 5.03012 10.4693V20.5106C5.03012 21.6639 5.96837 22.6026 7.12217 22.6026H23.8572C25.0106 22.6026 25.9493 21.6644 25.9493 20.5106V10.4693C25.9493 9.31595 25.011 8.37725 23.8572 8.37725H7.12217Z" fill="white"/>
<path d="M28.8779 30.1329H8.79572C8.10272 30.1329 7.54067 29.5709 7.54067 28.8779C7.54067 28.1849 8.10272 27.6229 8.79572 27.6229H28.8779C30.0312 27.6229 30.9699 26.6846 30.9699 25.5308V12.1428C30.9699 11.4498 31.532 10.8878 32.225 10.8878C32.918 10.8878 33.48 11.4498 33.48 12.1428V25.5308C33.48 28.0683 31.4154 30.1329 28.8779 30.1329Z" fill="white"/>
<path d="M15.4899 20.0921C12.9524 20.0921 10.8878 18.0275 10.8878 15.49C10.8878 12.9524 12.9524 10.8878 15.4899 10.8878C18.0275 10.8878 20.0921 12.9524 20.0921 15.49C20.0921 18.0275 18.0275 20.0921 15.4899 20.0921ZM15.4899 13.3979C14.3366 13.3979 13.3979 14.3362 13.3979 15.49C13.3979 16.6438 14.3361 17.582 15.4899 17.582C16.6437 17.582 17.582 16.6438 17.582 15.49C17.582 14.3362 16.6437 13.3979 15.4899 13.3979Z" fill="white"/>
</svg>
