<svg width="80" height="52" viewBox="0 0 80 52" fill="none" xmlns="http://www.w3.org/2000/svg">
<path d="M53.3618 39L76.2702 0H63.0411L36.3029 45.5C34.1931 49.09 35.443 52 39.1027 52H50.132C52.5718 52 56.2516 49.09 58.3614 45.5L62.1812 39H53.3618Z" fill="#7F45E2"/>
<path d="M80 8.67L72.3605 21.67H66.4809L74.1204 8.67H80Z" fill="#7F45E2"/>
<path d="M35.9029 8.67H22.6738L1.02526 45.5C-1.0846 49.09 0.165321 52 3.82508 52H10.4446L35.9029 8.67Z" fill="#7F45E2"/>
<path d="M20.124 43.02L18.6641 45.5C16.5542 49.09 12.8745 52 10.4346 52H28.0735L56.0916 4.33H42.8625L20.134 43.02H20.124Z" fill="#7F45E2"/>
</svg>
