<?xml version="1.0" encoding="UTF-8"?>
<svg id="_레이어_1" data-name="레이어_1" xmlns="http://www.w3.org/2000/svg" version="1.1" viewBox="0 0 36 36">
  <!-- Generator: Adobe Illustrator 29.3.1, SVG Export Plug-In . SVG Version: 2.1.0 Build 151)  -->
  <defs>
    <style>
      .st0 {
        fill: #fff;
      }
    </style>
  </defs>
  <path class="st0" d="M33,4.3l-1.3-1.3-11.5,11.5c-.6-.3-1.3-.6-2-.6-2.1,0-3.9,1.7-3.9,3.9s.2,1.4.6,2l-6,6c-.6-.3-1.3-.6-2-.6-2.1,0-3.9,1.7-3.9,3.9s1.7,3.9,3.9,3.9,3.9-1.7,3.9-3.9-.2-1.4-.6-2l6-6c.6.3,1.3.6,2,.6,2.1,0,3.9-1.7,3.9-3.9s-.2-1.4-.6-2l11.5-11.5ZM6.9,31.1c-1.1,0-2-.9-2-2s.9-2,2-2,2,.9,2,2-.9,2-2,2ZM18.2,19.8c-1.1,0-2-.9-2-2s.9-2,2-2,2,.9,2,2-.9,2-2,2Z"/>
</svg>