<?xml version="1.0" encoding="UTF-8"?>
<svg id="_레이어_1" data-name="레이어_1" xmlns="http://www.w3.org/2000/svg" version="1.1" viewBox="0 0 36 36">
  <!-- Generator: Adobe Illustrator 29.3.1, SVG Export Plug-In . SVG Version: 2.1.0 Build 151)  -->
  <defs>
    <style>
      .st0 {
        fill: #fff;
      }
    </style>
  </defs>
  <path class="st0" d="M31.8,30.7h-14c.6-.5,1.2-1.2,1.9-1.9l1.8-1.8s0,0,0,0,0,0,0,0l7.3-7.3c1.3-1.3,2.3-2.3,3-3.2.7-.9,1.2-1.9,1.2-3.1s-.5-2.1-1.2-3.1c-.7-.9-1.7-1.9-3-3.2-1.3-1.3-2.3-2.3-3.2-3-.9-.7-1.9-1.2-3.1-1.2s-2.1.5-3.1,1.2c-.9.7-1.9,1.7-3.2,3l-9.1,9.1c-1.3,1.3-2.3,2.3-3,3.2-.7.9-1.2,1.9-1.2,3.1s.5,2.1,1.2,3.1c.7.9,1.7,1.9,3,3.2,1.3,1.3,2.3,2.3,3.2,3,.9.7,1.8,1.2,2.9,1.2,0,0,0,0,0,0h18.5c.6,0,1.2-.5,1.2-1.2s-.5-1.2-1.2-1.2ZM17.9,8.8c1.3-1.3,2.2-2.2,3-2.8.7-.6,1.2-.7,1.7-.7s.9.2,1.7.7c.8.6,1.7,1.5,3,2.8,1.3,1.3,2.2,2.2,2.8,3,.6.7.7,1.2.7,1.7s-.2.9-.7,1.7c-.6.8-1.5,1.7-2.8,3l-6.5,6.5-9.3-9.3,6.5-6.5ZM8.8,27.2c-1.3-1.3-2.2-2.2-2.8-3-.6-.7-.7-1.2-.7-1.7s.2-.9.7-1.7c.6-.8,1.5-1.7,2.8-3l1-1,9.3,9.3-1,1c-1.3,1.3-2.2,2.2-3,2.8-.7.6-1.2.7-1.7.7s-.9-.2-1.7-.7c-.8-.6-1.7-1.5-3-2.8Z"/>
</svg>