<svg width="36" height="36" viewBox="0 0 36 36" fill="none" xmlns="http://www.w3.org/2000/svg">
<path d="M30.0013 7.50146H25.0828L25.0198 7.30796C24.5833 5.99396 24.3403 5.26946 23.7913 4.61246C23.3098 4.03646 22.6843 3.58646 21.9868 3.31196C21.1948 3.00146 20.4298 3.00146 19.0438 3.00146H16.9648C15.5788 3.00146 14.8138 3.00146 14.0218 3.31196C13.3243 3.58646 12.6988 4.03646 12.2173 4.61246C11.6683 5.26496 11.4298 5.98946 10.9888 7.30796L10.9258 7.50146H6.00729C5.17929 7.50146 4.50879 8.17196 4.50879 8.99996C4.50879 9.82796 5.17929 10.4985 6.00729 10.4985H7.50579V24.3C7.50579 26.9685 7.50579 28.44 8.15829 29.7225C8.73879 30.861 9.64329 31.7655 10.7818 32.346C12.0643 32.9985 13.5358 32.9985 16.2043 32.9985H19.8043C22.4728 32.9985 23.9443 32.9985 25.2268 32.346C26.3653 31.7655 27.2698 30.861 27.8503 29.7225C28.5028 28.44 28.5028 26.9685 28.5028 24.3V10.4985H30.0013C30.8293 10.4985 31.4998 9.82796 31.4998 8.99996C31.4998 8.17196 30.8293 7.50146 30.0013 7.50146ZM25.5013 24.3C25.5013 26.505 25.5013 27.72 25.1728 28.3635C24.8848 28.9305 24.4303 29.385 23.8633 29.673C23.2198 30.0015 22.0048 30.0015 19.7998 30.0015H16.1998C13.9948 30.0015 12.7798 30.0015 12.1363 29.673C11.5693 29.385 11.1148 28.9305 10.8268 28.3635C10.4983 27.72 10.4983 26.505 10.4983 24.3V10.4985H11.9653C11.9878 10.4985 12.0103 10.4985 12.0373 10.4985H23.9668C23.9893 10.4985 24.0118 10.4985 24.0388 10.4985H25.5058V24.3H25.5013Z" fill="white"/>
<path d="M17.9998 13.4955C17.1718 13.4955 16.5013 14.166 16.5013 14.994V16.1505H16.5103V24.345H16.5013V25.5015C16.5013 26.3295 17.1718 27 17.9998 27C18.8278 27 19.4983 26.3295 19.4983 25.5015V24.345H19.4893V16.1505H19.4983V14.994C19.4983 14.166 18.8278 13.4955 17.9998 13.4955Z" fill="white"/>
</svg>
