<svg width="36" height="36" viewBox="0 0 36 36" fill="none" xmlns="http://www.w3.org/2000/svg">
<path d="M17.9998 17.64C21.9598 17.64 25.0198 14.58 25.0198 10.62C25.0198 6.65998 21.9598 3.59998 17.9998 3.59998C14.0398 3.59998 10.9798 6.65998 10.9798 10.62C10.9798 14.58 14.0398 17.64 17.9998 17.64Z" fill="white"/>
<path d="M29.8798 22.14C22.3198 19.26 13.8598 19.26 6.29979 22.14C4.67979 22.68 3.77979 24.3 3.77979 25.92V28.44C3.77979 30.6 5.57979 32.58 7.91979 32.58H28.6198C30.7798 32.58 32.7598 30.78 32.7598 28.44V25.92C32.7598 24.3 31.6798 22.68 30.2398 22.14H29.8798Z" fill="white"/>
</svg>
