<svg width="36" height="36" viewBox="0 0 36 36" fill="none" xmlns="http://www.w3.org/2000/svg">
<path fill-rule="evenodd" clip-rule="evenodd" d="M6.56889 17.8C6.70004 18.0266 6.87391 18.3155 7.0893 18.649C7.64252 19.5056 8.4618 20.6447 9.52544 21.7793C11.6746 24.0717 14.6794 26.2 18.4 26.2C22.1206 26.2 25.1254 24.0717 27.2746 21.7793C28.3382 20.6447 29.1575 19.5056 29.7107 18.649C29.9261 18.3155 30.1 18.0266 30.2311 17.8C30.1 17.5734 29.9261 17.2845 29.7107 16.951C29.1575 16.0944 28.3382 14.9553 27.2746 13.8207C25.1254 11.5283 22.1206 9.4 18.4 9.4C14.6794 9.4 11.6746 11.5283 9.52544 13.8207C8.4618 14.9553 7.64252 16.0944 7.0893 16.951C6.87391 17.2845 6.70004 17.5734 6.56889 17.8ZM31.6 17.8C32.6733 17.2633 32.6731 17.2629 32.6729 17.2625L32.671 17.2586L32.6668 17.2504L32.6532 17.2238C32.6417 17.2015 32.6256 17.1704 32.6047 17.1309C32.563 17.052 32.5024 16.9399 32.4232 16.7992C32.265 16.518 32.0322 16.1218 31.7268 15.649C31.1175 14.7056 30.2118 13.4447 29.0254 12.1793C26.6746 9.67173 23.0794 7 18.4 7C13.7206 7 10.1254 9.67173 7.77455 12.1793C6.5882 13.4447 5.68248 14.7056 5.0732 15.649C4.76782 16.1218 4.53495 16.518 4.37677 16.7992C4.29763 16.9399 4.23705 17.052 4.1953 17.1309C4.17443 17.1704 4.15825 17.2015 4.14681 17.2238L4.13319 17.2504L4.12905 17.2586L4.12764 17.2614L4.12711 17.2625C4.12689 17.2629 4.12669 17.2633 5.2 17.8L4.12669 17.2633C3.95777 17.6012 3.95777 17.9988 4.12669 18.3367L5.2 17.8C4.12669 18.3367 4.12689 18.3371 4.12711 18.3375L4.12905 18.3414L4.13319 18.3496L4.14681 18.3762C4.15825 18.3985 4.17443 18.4296 4.1953 18.4691C4.23705 18.548 4.29763 18.6601 4.37677 18.8008C4.53495 19.082 4.76782 19.4782 5.0732 19.951C5.68248 20.8944 6.5882 22.1553 7.77455 23.4207C10.1254 25.9283 13.7206 28.6 18.4 28.6C23.0794 28.6 26.6746 25.9283 29.0254 23.4207C30.2118 22.1553 31.1175 20.8944 31.7268 19.951C32.0322 19.4782 32.265 19.082 32.4232 18.8008C32.5024 18.6601 32.563 18.548 32.6047 18.4691C32.6256 18.4296 32.6417 18.3985 32.6532 18.3762L32.6668 18.3496L32.671 18.3414L32.6729 18.3375C32.6731 18.3371 32.6733 18.3367 31.6 17.8ZM31.6 17.8L32.6733 18.3367C32.8422 17.9988 32.8422 17.6012 32.6733 17.2633L31.6 17.8ZM18.4 15.4C17.0745 15.4 16 16.4745 16 17.8C16 19.1255 17.0745 20.2 18.4 20.2C19.7255 20.2 20.8 19.1255 20.8 17.8C20.8 16.4745 19.7255 15.4 18.4 15.4ZM13.6 17.8C13.6 15.149 15.749 13 18.4 13C21.051 13 23.2 15.149 23.2 17.8C23.2 20.451 21.051 22.6 18.4 22.6C15.749 22.6 13.6 20.451 13.6 17.8Z" fill="white"/>
</svg>
